<mxfile host="app.diagrams.net" modified="2021-12-20T11:36:44.259Z" agent="5.0 (Windows NT 10.0; Win64; x64) AppleWebKit/537.36 (KHTML, like Gecko) Chrome/96.0.4664.110 Safari/537.36 Edg/96.0.1054.62" etag="X-mOyrXXXsC6POQEGW7F" version="16.0.0" type="github">
  <diagram id="UGF8Ka3dnVJwLSqxpdJI" name="Page-1">
    <mxGraphModel dx="1038" dy="571" grid="0" gridSize="10" guides="1" tooltips="1" connect="1" arrows="1" fold="1" page="0" pageScale="1" pageWidth="827" pageHeight="1169" math="0" shadow="0">
      <root>
        <mxCell id="0" />
        <mxCell id="1" parent="0" />
        <mxCell id="xYYgjetDp7J8uDyxIg_U-1" value="사용자" style="shape=umlActor;verticalLabelPosition=bottom;verticalAlign=top;html=1;outlineConnect=0;" parent="1" vertex="1">
          <mxGeometry x="60" y="120" width="30" height="60" as="geometry" />
        </mxCell>
        <mxCell id="xYYgjetDp7J8uDyxIg_U-2" value="알람 설정화면" style="rounded=0;whiteSpace=wrap;html=1;" parent="1" vertex="1">
          <mxGeometry x="270" y="140" width="120" height="60" as="geometry" />
        </mxCell>
        <mxCell id="xYYgjetDp7J8uDyxIg_U-3" value="수신 등록제어기" style="rounded=0;whiteSpace=wrap;html=1;" parent="1" vertex="1">
          <mxGeometry x="420" y="140" width="120" height="60" as="geometry" />
        </mxCell>
        <mxCell id="xYYgjetDp7J8uDyxIg_U-5" value="푸시알림서버" style="shape=umlActor;verticalLabelPosition=bottom;verticalAlign=top;html=1;outlineConnect=0;" parent="1" vertex="1">
          <mxGeometry x="780" y="124" width="30" height="60" as="geometry" />
        </mxCell>
        <mxCell id="xYYgjetDp7J8uDyxIg_U-7" value="" style="endArrow=none;dashed=1;html=1;rounded=0;startArrow=none;" parent="1" edge="1">
          <mxGeometry width="50" height="50" relative="1" as="geometry">
            <mxPoint x="80" y="240" as="sourcePoint" />
            <mxPoint x="80" y="200" as="targetPoint" />
            <Array as="points">
              <mxPoint x="80" y="200" />
            </Array>
          </mxGeometry>
        </mxCell>
        <mxCell id="xYYgjetDp7J8uDyxIg_U-8" value="" style="endArrow=none;dashed=1;html=1;rounded=0;startArrow=none;entryX=0.5;entryY=1;entryDx=0;entryDy=0;" parent="1" source="HG_VyTTf_zHc6W851fkk-1" target="xYYgjetDp7J8uDyxIg_U-2" edge="1">
          <mxGeometry width="50" height="50" relative="1" as="geometry">
            <mxPoint x="331.5" y="580" as="sourcePoint" />
            <mxPoint x="332" y="200" as="targetPoint" />
            <Array as="points" />
          </mxGeometry>
        </mxCell>
        <mxCell id="xYYgjetDp7J8uDyxIg_U-9" value="" style="endArrow=none;dashed=1;html=1;rounded=0;startArrow=none;" parent="1" source="xYYgjetDp7J8uDyxIg_U-20" edge="1">
          <mxGeometry width="50" height="50" relative="1" as="geometry">
            <mxPoint x="479.5" y="580" as="sourcePoint" />
            <mxPoint x="479.5" y="200" as="targetPoint" />
            <Array as="points">
              <mxPoint x="479.5" y="200" />
            </Array>
          </mxGeometry>
        </mxCell>
        <mxCell id="xYYgjetDp7J8uDyxIg_U-10" value="" style="endArrow=none;dashed=1;html=1;rounded=0;startArrow=none;" parent="1" source="xYYgjetDp7J8uDyxIg_U-26" edge="1">
          <mxGeometry width="50" height="50" relative="1" as="geometry">
            <mxPoint x="800" y="584" as="sourcePoint" />
            <mxPoint x="800" y="204" as="targetPoint" />
            <Array as="points">
              <mxPoint x="800" y="204" />
            </Array>
          </mxGeometry>
        </mxCell>
        <mxCell id="xYYgjetDp7J8uDyxIg_U-13" value="" style="endArrow=none;dashed=1;html=1;rounded=0;" parent="1" edge="1">
          <mxGeometry width="50" height="50" relative="1" as="geometry">
            <mxPoint x="80" y="580" as="sourcePoint" />
            <mxPoint x="80" y="240" as="targetPoint" />
            <Array as="points" />
          </mxGeometry>
        </mxCell>
        <mxCell id="xYYgjetDp7J8uDyxIg_U-14" value="" style="endArrow=classic;html=1;rounded=0;" parent="1" edge="1">
          <mxGeometry width="50" height="50" relative="1" as="geometry">
            <mxPoint x="80" y="240" as="sourcePoint" />
            <mxPoint x="176" y="240" as="targetPoint" />
          </mxGeometry>
        </mxCell>
        <mxCell id="xYYgjetDp7J8uDyxIg_U-16" value="환경설정 버튼 클릭" style="text;html=1;strokeColor=none;fillColor=none;align=center;verticalAlign=middle;whiteSpace=wrap;rounded=0;" parent="1" vertex="1">
          <mxGeometry x="80" y="211" width="92" height="30" as="geometry" />
        </mxCell>
        <mxCell id="xYYgjetDp7J8uDyxIg_U-17" value="" style="endArrow=classic;html=1;rounded=0;entryX=0;entryY=0;entryDx=0;entryDy=0;" parent="1" target="xYYgjetDp7J8uDyxIg_U-20" edge="1">
          <mxGeometry width="50" height="50" relative="1" as="geometry">
            <mxPoint x="334" y="399" as="sourcePoint" />
            <mxPoint x="480" y="399" as="targetPoint" />
          </mxGeometry>
        </mxCell>
        <mxCell id="xYYgjetDp7J8uDyxIg_U-18" value="수강신청 수신등록 요청" style="text;html=1;strokeColor=none;fillColor=none;align=center;verticalAlign=middle;whiteSpace=wrap;rounded=0;" parent="1" vertex="1">
          <mxGeometry x="326" y="369" width="171" height="30" as="geometry" />
        </mxCell>
        <mxCell id="xYYgjetDp7J8uDyxIg_U-20" value="" style="rounded=0;whiteSpace=wrap;html=1;" parent="1" vertex="1">
          <mxGeometry x="470" y="399" width="20" height="40" as="geometry" />
        </mxCell>
        <mxCell id="xYYgjetDp7J8uDyxIg_U-21" value="" style="endArrow=none;dashed=1;html=1;rounded=0;" parent="1" target="xYYgjetDp7J8uDyxIg_U-20" edge="1">
          <mxGeometry width="50" height="50" relative="1" as="geometry">
            <mxPoint x="479.5" y="580" as="sourcePoint" />
            <mxPoint x="479.5" y="200" as="targetPoint" />
            <Array as="points" />
          </mxGeometry>
        </mxCell>
        <mxCell id="xYYgjetDp7J8uDyxIg_U-23" value="" style="endArrow=classic;html=1;rounded=0;" parent="1" edge="1">
          <mxGeometry width="50" height="50" relative="1" as="geometry">
            <mxPoint x="490" y="439" as="sourcePoint" />
            <mxPoint x="661" y="439" as="targetPoint" />
          </mxGeometry>
        </mxCell>
        <mxCell id="xYYgjetDp7J8uDyxIg_U-24" value="수강신청 수신 등록&lt;br&gt;(식별 데이터, 키워드)" style="text;html=1;strokeColor=none;fillColor=none;align=center;verticalAlign=middle;whiteSpace=wrap;rounded=0;" parent="1" vertex="1">
          <mxGeometry x="481" y="399" width="190" height="40" as="geometry" />
        </mxCell>
        <mxCell id="xYYgjetDp7J8uDyxIg_U-26" value="" style="rounded=0;whiteSpace=wrap;html=1;" parent="1" vertex="1">
          <mxGeometry x="785" y="221" width="20" height="364" as="geometry" />
        </mxCell>
        <mxCell id="xYYgjetDp7J8uDyxIg_U-27" value="" style="endArrow=none;dashed=1;html=1;rounded=0;" parent="1" edge="1">
          <mxGeometry width="50" height="50" relative="1" as="geometry">
            <mxPoint x="798" y="534" as="sourcePoint" />
            <mxPoint x="798.0276243093922" y="535" as="targetPoint" />
            <Array as="points" />
          </mxGeometry>
        </mxCell>
        <mxCell id="xYYgjetDp7J8uDyxIg_U-32" value="" style="endArrow=classic;html=1;rounded=0;" parent="1" edge="1">
          <mxGeometry width="50" height="50" relative="1" as="geometry">
            <mxPoint x="808" y="502" as="sourcePoint" />
            <mxPoint x="811" y="581" as="targetPoint" />
            <Array as="points">
              <mxPoint x="838" y="502" />
              <mxPoint x="838" y="582" />
            </Array>
          </mxGeometry>
        </mxCell>
        <mxCell id="xYYgjetDp7J8uDyxIg_U-33" value="사용자의 기기를 키워드 별로 수신자 그룹에 편성" style="text;html=1;strokeColor=none;fillColor=none;align=center;verticalAlign=middle;whiteSpace=wrap;rounded=0;" parent="1" vertex="1">
          <mxGeometry x="838" y="505" width="100" height="80" as="geometry" />
        </mxCell>
        <mxCell id="EtJNcAuq82iukkRZDbyy-1" value="앱&amp;nbsp; 화면" style="rounded=0;whiteSpace=wrap;html=1;" parent="1" vertex="1">
          <mxGeometry x="121" y="140" width="120" height="60" as="geometry" />
        </mxCell>
        <mxCell id="xYYgjetDp7J8uDyxIg_U-15" value="" style="rounded=0;whiteSpace=wrap;html=1;" parent="1" vertex="1">
          <mxGeometry x="320" y="359" width="20" height="40" as="geometry" />
        </mxCell>
        <mxCell id="EtJNcAuq82iukkRZDbyy-4" value="" style="endArrow=classic;html=1;rounded=0;entryX=0;entryY=0;entryDx=0;entryDy=0;" parent="1" edge="1">
          <mxGeometry width="50" height="50" relative="1" as="geometry">
            <mxPoint x="178" y="270" as="sourcePoint" />
            <mxPoint x="314" y="270" as="targetPoint" />
          </mxGeometry>
        </mxCell>
        <mxCell id="EtJNcAuq82iukkRZDbyy-5" value="" style="rounded=0;whiteSpace=wrap;html=1;" parent="1" vertex="1">
          <mxGeometry x="171" y="250" width="20" height="21" as="geometry" />
        </mxCell>
        <mxCell id="EtJNcAuq82iukkRZDbyy-6" value="" style="endArrow=none;dashed=1;html=1;rounded=0;" parent="1" target="EtJNcAuq82iukkRZDbyy-5" edge="1">
          <mxGeometry width="50" height="50" relative="1" as="geometry">
            <mxPoint x="179" y="580" as="sourcePoint" />
            <mxPoint x="179" y="200" as="targetPoint" />
            <Array as="points" />
          </mxGeometry>
        </mxCell>
        <mxCell id="EtJNcAuq82iukkRZDbyy-7" value="알람 설정 요청" style="text;html=1;strokeColor=none;fillColor=none;align=center;verticalAlign=middle;whiteSpace=wrap;rounded=0;" parent="1" vertex="1">
          <mxGeometry x="187" y="241" width="92" height="30" as="geometry" />
        </mxCell>
        <mxCell id="EtJNcAuq82iukkRZDbyy-8" value="" style="endArrow=classic;html=1;rounded=0;dashed=1;" parent="1" edge="1">
          <mxGeometry width="50" height="50" relative="1" as="geometry">
            <mxPoint x="325" y="318" as="sourcePoint" />
            <mxPoint x="85" y="318" as="targetPoint" />
          </mxGeometry>
        </mxCell>
        <mxCell id="EtJNcAuq82iukkRZDbyy-9" value="기숙사,수강신청, 장학금 버튼 보임" style="text;html=1;align=center;verticalAlign=middle;resizable=0;points=[];autosize=1;strokeColor=none;fillColor=none;" parent="1" vertex="1">
          <mxGeometry x="121" y="296" width="195" height="18" as="geometry" />
        </mxCell>
        <mxCell id="EtJNcAuq82iukkRZDbyy-10" value="" style="endArrow=classic;html=1;rounded=0;" parent="1" edge="1">
          <mxGeometry width="50" height="50" relative="1" as="geometry">
            <mxPoint x="82" y="350" as="sourcePoint" />
            <mxPoint x="322" y="350" as="targetPoint" />
          </mxGeometry>
        </mxCell>
        <mxCell id="EtJNcAuq82iukkRZDbyy-11" value="수강신청 스위치 on설정&amp;nbsp;" style="text;html=1;align=center;verticalAlign=middle;resizable=0;points=[];autosize=1;strokeColor=none;fillColor=none;" parent="1" vertex="1">
          <mxGeometry x="110.5" y="327" width="141" height="18" as="geometry" />
        </mxCell>
        <mxCell id="EtJNcAuq82iukkRZDbyy-15" value="" style="endArrow=none;dashed=1;html=1;dashPattern=1 3;strokeWidth=2;rounded=0;entryX=0.5;entryY=1;entryDx=0;entryDy=0;exitX=0.5;exitY=0;exitDx=0;exitDy=0;" parent="1" source="EtJNcAuq82iukkRZDbyy-5" target="EtJNcAuq82iukkRZDbyy-1" edge="1">
          <mxGeometry width="50" height="50" relative="1" as="geometry">
            <mxPoint x="476" y="408" as="sourcePoint" />
            <mxPoint x="526" y="358" as="targetPoint" />
          </mxGeometry>
        </mxCell>
        <mxCell id="HG_VyTTf_zHc6W851fkk-1" value="" style="rounded=0;whiteSpace=wrap;html=1;" parent="1" vertex="1">
          <mxGeometry x="320" y="271" width="20" height="21" as="geometry" />
        </mxCell>
        <mxCell id="HG_VyTTf_zHc6W851fkk-2" value="" style="endArrow=none;dashed=1;html=1;rounded=0;startArrow=none;" parent="1" source="xYYgjetDp7J8uDyxIg_U-15" target="HG_VyTTf_zHc6W851fkk-1" edge="1">
          <mxGeometry width="50" height="50" relative="1" as="geometry">
            <mxPoint x="331.9441340782123" y="359" as="sourcePoint" />
            <mxPoint x="331.5" y="200" as="targetPoint" />
            <Array as="points" />
          </mxGeometry>
        </mxCell>
        <mxCell id="HG_VyTTf_zHc6W851fkk-3" value="" style="endArrow=none;dashed=1;html=1;rounded=0;entryX=0.5;entryY=1;entryDx=0;entryDy=0;" parent="1" target="xYYgjetDp7J8uDyxIg_U-15" edge="1">
          <mxGeometry width="50" height="50" relative="1" as="geometry">
            <mxPoint x="330" y="578" as="sourcePoint" />
            <mxPoint x="391" y="458" as="targetPoint" />
          </mxGeometry>
        </mxCell>
        <mxCell id="HG_VyTTf_zHc6W851fkk-4" value="푸시알림 서버등록기" style="rounded=0;whiteSpace=wrap;html=1;" parent="1" vertex="1">
          <mxGeometry x="607" y="140" width="120" height="60" as="geometry" />
        </mxCell>
        <mxCell id="HG_VyTTf_zHc6W851fkk-5" value="" style="endArrow=none;dashed=1;html=1;rounded=0;startArrow=none;" parent="1" source="HG_VyTTf_zHc6W851fkk-6" edge="1">
          <mxGeometry width="50" height="50" relative="1" as="geometry">
            <mxPoint x="666.5" y="580" as="sourcePoint" />
            <mxPoint x="666.5" y="200" as="targetPoint" />
            <Array as="points">
              <mxPoint x="666.5" y="200" />
            </Array>
          </mxGeometry>
        </mxCell>
        <mxCell id="HG_VyTTf_zHc6W851fkk-6" value="" style="rounded=0;whiteSpace=wrap;html=1;" parent="1" vertex="1">
          <mxGeometry x="657" y="445" width="20" height="29" as="geometry" />
        </mxCell>
        <mxCell id="HG_VyTTf_zHc6W851fkk-7" value="" style="endArrow=none;dashed=1;html=1;rounded=0;" parent="1" target="HG_VyTTf_zHc6W851fkk-6" edge="1">
          <mxGeometry width="50" height="50" relative="1" as="geometry">
            <mxPoint x="666.5" y="580" as="sourcePoint" />
            <mxPoint x="666.5" y="200" as="targetPoint" />
            <Array as="points" />
          </mxGeometry>
        </mxCell>
        <mxCell id="HG_VyTTf_zHc6W851fkk-8" value="" style="endArrow=classic;html=1;rounded=0;" parent="1" edge="1">
          <mxGeometry width="50" height="50" relative="1" as="geometry">
            <mxPoint x="670" y="475" as="sourcePoint" />
            <mxPoint x="782" y="475" as="targetPoint" />
          </mxGeometry>
        </mxCell>
        <mxCell id="HG_VyTTf_zHc6W851fkk-9" value="데이터 등록 요청" style="text;html=1;strokeColor=none;fillColor=none;align=center;verticalAlign=middle;whiteSpace=wrap;rounded=0;" parent="1" vertex="1">
          <mxGeometry x="677" y="450" width="99" height="30" as="geometry" />
        </mxCell>
      </root>
    </mxGraphModel>
  </diagram>
</mxfile>
